<?xml version="1.0" encoding="utf-8"?>
<!-- Generator: Adobe Illustrator 19.2.1, SVG Export Plug-In . SVG Version: 6.00 Build 0)  -->
<svg version="1.1" id="图层_1" xmlns="http://www.w3.org/2000/svg" xmlns:xlink="http://www.w3.org/1999/xlink" x="0px" y="0px"
	 viewBox="0 0 70 70" style="enable-background:new 0 0 70 70;" xml:space="preserve">
<style type="text/css">
	.st0{fill:url(#SVGID_1_);}
	.st1{fill:url(#SVGID_2_);}
	.st2{fill:url(#SVGID_3_);}
	.st3{fill:#FFFFFF;}
	.st4{font-family:'Gotham-Bold';}
	.st5{font-size:25.6px;}
</style>
<linearGradient id="SVGID_1_" gradientUnits="userSpaceOnUse" x1="7.0714" y1="775.6805" x2="64.0944" y2="749.6865" gradientTransform="matrix(1 0 0 1 0 -720.953)">
	<stop  offset="0" style="stop-color:#905CFB"/>
	<stop  offset="0.165" style="stop-color:#6677F8"/>
	<stop  offset="0.378" style="stop-color:#3596F5"/>
	<stop  offset="0.54" style="stop-color:#17A9F3"/>
	<stop  offset="0.632" style="stop-color:#0CB0F2"/>
</linearGradient>
<path class="st0" d="M66.9,47.5c-0.2-0.2-13.1-12.6-13.1-12.6s9.8-10.4,12.4-13c0.8-0.8,1.5-1.6,2-2.6c3.6-6.1,1.5-13.9-4.6-17.5
	c-4.5-2.6-10.1-2.2-14.1,0.8c-0.7,0.5-1.3,1-1.9,1.6C47.3,4.6,33.7,17,21.9,27.8l22.1,14L20.8,67.9c-1.4,1-2.8,1.6-4.3,1.9
	c0.3,0,0.5,0,0.8-0.1c4.6-0.7,43.9-7.3,45.8-7.7c2.3-0.4,4.4-1.8,5.7-3.9C71,54.5,70,50,66.9,47.5z"/>
<linearGradient id="SVGID_2_" gradientUnits="userSpaceOnUse" x1="30.3014" y1="749.0937" x2="1.0594" y2="723.2657" gradientTransform="matrix(1 0 0 1 0 -720.953)">
	<stop  offset="0" style="stop-color:#905CFB"/>
	<stop  offset="7.200000e-002" style="stop-color:#A554E6"/>
	<stop  offset="0.252" style="stop-color:#D641B5"/>
	<stop  offset="0.39" style="stop-color:#F43597"/>
	<stop  offset="0.468" style="stop-color:#FF318C"/>
</linearGradient>
<path class="st1" d="M45.9,30.5c-0.4-2.7-1.8-4.9-3.8-6.5C40,22.4,23.8,5.6,22,3.7C19.2,1,15.2-0.5,11.1,0.2
	c-7,1-11.9,7.6-10.8,14.6c0.5,3.5,2.5,6.5,5.1,8.4c2.6,2,23,16,24.3,17c2.1,1.6,4.9,2.5,7.7,2C42.9,41.2,46.8,36,45.9,30.5z"/>
<linearGradient id="SVGID_3_" gradientUnits="userSpaceOnUse" x1="4.9814" y1="779.6355" x2="74.0214" y2="736.1335" gradientTransform="matrix(1 0 0 1 0 -720.953)">
	<stop  offset="0" style="stop-color:#905CFB"/>
	<stop  offset="0.165" style="stop-color:#6677F8"/>
	<stop  offset="0.378" style="stop-color:#3596F5"/>
	<stop  offset="0.54" style="stop-color:#17A9F3"/>
	<stop  offset="0.632" style="stop-color:#0CB0F2"/>
</linearGradient>
<path class="st2" d="M23,67.8c0.1,0,23.3-26.1,23.3-26.1L22.9,26.9c-8.3,7.6-16,14.5-17.8,16.2c-1.1,1-2.2,2.3-3,3.7
	c-4.3,7.4-1.8,16.8,5.6,21.1C10.7,69.6,17.5,71.7,23,67.8z"/>
<path d="M13.4,13.4h43.2v43.2H13.4V13.4z"/>
<rect x="17.4" y="48.5" class="st3" width="16.2" height="2.7"/>
<text transform="matrix(1 0 0 1 17.1268 36.9401)" class="st3 st4 st5">FY</text>
</svg>
